<svg width="791" height="126" viewBox="0 0 791 126" fill="none" xmlns="http://www.w3.org/2000/svg">
<path fill-rule="evenodd" clip-rule="evenodd" d="M150.775 107.037C128.014 129.798 92.3394 131.775 67.3349 112.969C63.3326 109.958 63.3425 104.159 66.8558 100.59L118.537 48.0926L163.022 3.60768C166.583 0.0467932 172.356 0.0467855 175.917 3.60768L208.613 36.3037C212.174 39.8646 212.174 45.638 208.613 49.1988L150.775 107.037ZM35.3667 81.8949C38.9276 85.4558 44.7009 85.4558 48.2618 81.8949L80.9579 49.1988C84.5188 45.6379 84.5188 39.8646 80.9579 36.3037L48.2618 3.60768C44.7009 0.0467853 38.9276 0.0467929 35.3667 3.60768L2.67066 36.3037C-0.890226 39.8646 -0.890219 45.6379 2.67067 49.1988L35.3667 81.8949Z" fill="#3E3E7C"/>
<path d="M317.723 41.0752L300.998 87.9362H288.849L272.124 41.0752H283.326L293.424 70.6592C294.055 72.7103 294.608 74.9982 295.002 76.8126H295.318C295.712 74.9982 296.264 72.7103 296.895 70.6592L306.993 41.0752H317.723Z" fill="#3E3E7C"/>
<path d="M368.481 41.0752L351.677 71.3692V87.9362H341.263V71.3692L324.46 41.0752H336.057L346.707 61.6656L357.357 41.0752H368.481Z" fill="#3E3E7C"/>
<path d="M378.431 87.9362V41.0752H388.923V78.4693H408.488L407.699 87.9362H378.431Z" fill="#3E3E7C"/>
<path d="M450.077 41.0752L449.288 50.3843H429.25V59.7723H445.738V68.8447H429.25V78.6271H450.472V87.9362H418.757V41.0752H450.077Z" fill="#3E3E7C"/>
<path d="M493.023 41.0752L492.234 50.3843H472.196V59.7723H488.684V68.8447H472.196V78.6271H493.418V87.9362H461.704V41.0752H493.023Z" fill="#3E3E7C"/>
<path d="M555.786 42.8896L553.814 52.1988C551.211 50.6209 545.767 49.5954 541.98 49.5954C536.931 49.5954 534.249 51.0943 534.249 54.0132C534.249 61.429 557.759 57.2478 557.759 73.8148C557.759 82.8872 550.895 88.6462 538.43 88.6462C532.671 88.6462 527.07 87.4629 523.757 85.7273L524.624 75.9448C527.622 77.8382 533.539 79.416 538.746 79.416C544.426 79.416 547.029 77.9171 547.029 74.7615C547.029 67.1091 523.52 71.3692 523.52 54.9599C523.52 46.282 530.462 40.3651 541.744 40.3651C546.319 40.3651 552.315 41.2329 555.786 42.8896Z" fill="#3E3E7C"/>
<path d="M589.564 87.9362H579.072V50.4632H565.661V41.0752H603.37L602.581 50.4632H589.564V87.9362Z" fill="#3E3E7C"/>
<path d="M653.304 41.0752V68.0558C653.304 81.2305 645.731 88.6462 633.029 88.6462C620.328 88.6462 612.755 81.2305 612.755 68.0558V41.0752H623.247V67.2669C623.247 74.6826 626.324 79.0216 633.266 79.0216C640.13 79.0216 643.206 74.6826 643.206 67.2669V41.0752H653.304Z" fill="#3E3E7C"/>
<path d="M709.176 64.5057C709.176 78.2327 699.156 87.9362 683.221 87.9362H666.496V41.0752H683.221C699.235 41.0752 709.176 50.6998 709.176 64.5057ZM698.289 64.5057C698.289 55.4333 692.451 49.9109 683.221 49.9109H676.909V79.1005H683.221C692.53 79.1005 698.289 73.5781 698.289 64.5057Z" fill="#3E3E7C"/>
<path d="M730.797 41.0752V87.9362H720.305V41.0752H730.797Z" fill="#3E3E7C"/>
<path d="M766.465 40.3651C780.744 40.3651 791 50.6209 791 64.5057C791 78.3905 780.744 88.6462 766.465 88.6462C752.265 88.6462 741.93 78.3905 741.93 64.5057C741.93 50.6209 752.265 40.3651 766.465 40.3651ZM766.465 79.2583C774.512 79.2583 780.113 73.0259 780.113 64.5057C780.113 55.9855 774.512 49.7531 766.465 49.7531C758.497 49.7531 752.817 55.9066 752.817 64.5057C752.817 73.0259 758.497 79.2583 766.465 79.2583Z" fill="#3E3E7C"/>
</svg>