<?xml version="1.0" standalone="no"?>
<!DOCTYPE svg PUBLIC "-//W3C//DTD SVG 20010904//EN"
 "http://www.w3.org/TR/2001/REC-SVG-20010904/DTD/svg10.dtd">
<svg version="1.0" xmlns="http://www.w3.org/2000/svg"
 width="700.000000pt" height="700.000000pt" viewBox="0 0 700.000000 700.000000"
 preserveAspectRatio="xMidYMid meet">
<metadata>
Created by potrace 1.14, written by Peter Selinger 2001-2017
</metadata>
<g transform="translate(0.000000,700.000000) scale(0.100000,-0.100000)"
fill="#000000" stroke="none">
<path d="M1132 6988 c-587 -73 -1049 -540 -1121 -1133 -15 -127 -15 -4583 0
-4710 73 -599 535 -1061 1134 -1134 127 -15 4583 -15 4710 0 599 73 1061 535
1134 1134 15 127 15 4583 0 4710 -73 599 -535 1061 -1134 1134 -113 14 -4613
13 -4723 -1z m1173 -2349 c34 -9 95 -66 383 -352 350 -349 382 -388 382 -458
-1 -71 -31 -107 -376 -451 -345 -344 -375 -368 -446 -368 -70 1 -107 32 -454
381 -366 369 -373 378 -360 462 4 23 15 55 26 72 10 16 171 182 357 367 379
377 379 377 488 347z m2500 0 c34 -9 95 -65 378 -347 186 -186 347 -351 358
-368 31 -51 35 -115 11 -166 -15 -30 -200 -221 -629 -649 -335 -333 -635 -626
-668 -651 -334 -250 -751 -317 -1155 -188 -145 47 -343 164 -387 229 -27 40
-30 98 -7 146 14 30 1222 1263 1730 1767 248 245 265 255 369 227z"/>
</g>
</svg>
